<svg width="100%" height="100%" xmlns="http://www.w3.org/2000/svg">
  <g>
    <circle cx="10" cy="10" r="1.2" fill="#fff" opacity="0.8"/>
    <circle cx="50" cy="80" r="0.8" fill="#fff" opacity="0.6"/>
    <circle cx="120" cy="40" r="1.5" fill="#fff" opacity="0.7"/>
    <circle cx="200" cy="120" r="1" fill="#fff" opacity="0.5"/>
    <circle cx="300" cy="60" r="1.3" fill="#fff" opacity="0.8"/>
    <circle cx="400" cy="200" r="0.7" fill="#fff" opacity="0.6"/>
    <circle cx="600" cy="100" r="1.1" fill="#fff" opacity="0.7"/>
    <circle cx="700" cy="180" r="1.4" fill="#fff" opacity="0.8"/>
    <circle cx="800" cy="40" r="1.2" fill="#fff" opacity="0.5"/>
    <circle cx="900" cy="220" r="1.6" fill="#fff" opacity="0.7"/>
    <circle cx="1000" cy="80" r="1.1" fill="#fff" opacity="0.6"/>
    <circle cx="1100" cy="160" r="1.3" fill="#fff" opacity="0.8"/>
    <circle cx="1200" cy="30" r="1.2" fill="#fff" opacity="0.7"/>
    <circle cx="1300" cy="210" r="1.5" fill="#fff" opacity="0.6"/>
    <circle cx="1400" cy="90" r="1.4" fill="#fff" opacity="0.7"/>
    <circle cx="1500" cy="170" r="1.2" fill="#fff" opacity="0.8"/>
    <circle cx="1600" cy="50" r="1.1" fill="#fff" opacity="0.6"/>
    <circle cx="1700" cy="200" r="1.3" fill="#fff" opacity="0.7"/>
    <circle cx="1800" cy="100" r="1.5" fill="#fff" opacity="0.8"/>
    <circle cx="1900" cy="180" r="1.2" fill="#fff" opacity="0.6"/>
  </g>
</svg>
